<?xml version="1.0" standalone="no"?>
<!DOCTYPE svg PUBLIC "-//W3C//DTD SVG 20010904//EN"
 "http://www.w3.org/TR/2001/REC-SVG-20010904/DTD/svg10.dtd">
<svg version="1.0" xmlns="http://www.w3.org/2000/svg"
 width="700.000000pt" height="700.000000pt" viewBox="0 0 700.000000 700.000000"
 preserveAspectRatio="xMidYMid meet">
<metadata>
Created by potrace 1.14, written by Peter Selinger 2001-2017
</metadata>
<g transform="translate(0.000000,700.000000) scale(0.100000,-0.100000)"
fill="#000000" stroke="none">
<path d="M3298 6996 c-1 -2 -41 -6 -88 -10 -112 -8 -309 -35 -380 -52 -14 -3
-38 -8 -55 -11 -99 -15 -453 -121 -562 -169 -18 -8 -48 -21 -67 -29 -19 -8
-37 -15 -41 -15 -13 0 -309 -152 -384 -198 -626 -378 -1097 -898 -1394 -1539
-82 -177 -159 -388 -203 -553 -17 -65 -35 -140 -39 -165 -3 -16 -8 -38 -11
-47 -8 -26 -28 -151 -49 -303 -26 -186 -26 -647 0 -807 2 -13 6 -45 10 -73 3
-27 10 -75 15 -105 5 -30 12 -70 15 -87 3 -18 17 -79 31 -135 14 -57 27 -113
30 -126 10 -51 94 -294 138 -400 49 -120 159 -346 201 -412 14 -22 25 -42 25
-45 0 -3 37 -61 81 -128 196 -293 377 -500 650 -742 99 -88 377 -288 499 -358
165 -95 385 -201 530 -255 258 -96 518 -163 765 -197 261 -36 667 -41 895 -10
189 25 325 51 479 91 457 120 890 335 1265 626 154 120 333 288 451 422 33 38
67 76 75 85 8 9 44 54 80 101 36 47 68 86 73 88 4 2 7 10 7 17 0 7 4 15 8 17
13 5 138 200 205 319 196 353 325 717 396 1119 18 103 23 141 38 270 8 71 10
497 2 580 -13 144 -25 252 -33 296 -2 11 -11 60 -21 109 -72 385 -218 768
-426 1120 -200 339 -467 652 -764 899 -106 88 -104 86 -195 151 -350 252 -739
436 -1160 549 -171 46 -274 65 -560 102 -48 6 -526 15 -532 10z m412 -970
c149 -12 239 -27 405 -68 513 -125 1012 -438 1338 -838 34 -41 64 -77 67 -80
13 -11 149 -219 178 -272 103 -185 177 -358 230 -533 80 -264 106 -444 106
-735 0 -189 -12 -338 -39 -470 -3 -14 -7 -35 -10 -48 -2 -13 -6 -31 -9 -40 -3
-9 -7 -28 -10 -42 -32 -172 -171 -512 -287 -702 -49 -79 -156 -237 -168 -248
-3 -3 -24 -27 -46 -55 -160 -201 -393 -406 -625 -550 -91 -56 -320 -175 -337
-175 -4 0 -21 -7 -38 -16 -52 -27 -286 -101 -405 -128 -175 -39 -348 -58 -530
-59 -219 -1 -312 7 -535 47 -184 34 -499 148 -685 249 -123 67 -349 214 -380
247 -3 3 -34 30 -70 60 -257 215 -479 502 -631 815 -105 215 -200 505 -224
685 -3 25 -8 52 -10 60 -2 8 -7 47 -11 85 -3 39 -8 79 -10 90 -6 27 -5 350 1
400 2 22 7 62 10 89 15 143 64 363 112 506 54 162 154 381 228 495 19 31 35
57 35 60 0 9 100 150 163 229 65 83 238 263 322 335 95 81 233 181 340 246
102 62 290 157 365 184 19 8 49 19 65 26 94 41 393 118 506 130 30 4 60 8 67
10 7 3 58 7 115 11 56 4 103 7 104 8 5 4 229 -2 303 -8z"/>
<path d="M2480 5388 c-14 -6 -61 -29 -105 -51 -327 -160 -514 -454 -517 -812
-6 -543 296 -1012 817 -1270 122 -60 290 -123 301 -112 3 2 -19 18 -49 35
-184 104 -424 354 -563 588 -99 166 -221 467 -238 589 -3 22 -9 60 -13 85 -8
60 -9 202 0 270 27 221 134 429 310 602 49 48 88 88 86 87 -2 0 -15 -5 -29
-11z"/>
<path d="M4525 5368 c45 -33 140 -132 184 -191 50 -66 132 -225 154 -297 65
-215 59 -440 -18 -680 -99 -311 -258 -575 -479 -795 -56 -55 -114 -110 -131
-123 -97 -72 -124 -91 -165 -115 -52 -31 -45 -33 31 -11 189 56 404 174 564
310 177 150 299 314 385 516 97 227 132 533 85 738 -19 81 -70 215 -91 241 -8
8 -14 19 -14 23 0 7 -30 51 -65 95 -97 122 -317 273 -445 306 -24 6 -24 5 5
-17z"/>
<path d="M3195 5219 c-27 -4 -75 -14 -105 -23 -30 -8 -95 -26 -143 -40 -91
-26 -245 -54 -332 -60 -27 -2 -53 -4 -57 -5 -5 -1 -8 -211 -8 -467 l0 -466 93
6 c50 3 106 8 122 11 33 7 185 39 279 60 59 13 244 14 301 1 44 -10 145 -47
150 -56 3 -5 27 2 54 16 122 58 311 68 486 24 50 -12 99 -24 110 -26 11 -1 45
-8 75 -14 30 -6 97 -13 148 -17 l92 -6 -2 468 -3 467 -50 4 c-27 1 -70 6 -95
9 -144 20 -207 35 -347 79 -153 49 -241 49 -378 0 -38 -14 -74 -26 -80 -25 -5
0 -37 10 -70 22 -83 30 -181 46 -240 38z"/>
<path d="M1380 4440 c-1 -8 -3 -24 -6 -35 -19 -98 -26 -370 -11 -477 14 -104
47 -235 72 -293 7 -16 23 -52 34 -78 66 -155 242 -351 394 -438 168 -97 307
-147 507 -183 158 -28 254 -37 410 -38 227 -1 268 4 160 17 -95 11 -185 33
-333 79 -99 31 -117 39 -252 105 -398 195 -686 507 -850 921 -33 85 -87 271
-113 390 -5 25 -10 38 -12 30z"/>
<path d="M5600 4373 c-17 -82 -14 -69 -28 -123 -68 -251 -194 -510 -335 -685
-61 -76 -235 -244 -305 -295 -266 -192 -624 -335 -907 -361 -11 -1 -4 -4 15
-8 59 -11 391 -1 465 13 11 2 43 7 70 10 72 10 208 42 300 73 283 92 521 287
639 522 43 85 92 223 105 298 6 32 14 76 18 98 17 94 7 446 -15 504 -7 19 -11
10 -22 -46z"/>
<path d="M3570 3830 c-73 -15 -158 -64 -265 -150 -102 -83 -234 -156 -299
-167 -55 -9 -52 -20 6 -29 62 -10 101 -8 146 7 18 6 35 9 38 7 8 -9 -38 -102
-79 -160 -22 -32 -54 -67 -71 -78 l-31 -20 35 0 c46 0 125 38 174 84 21 20 42
36 45 36 11 0 39 -70 52 -129 6 -30 9 -83 6 -117 -6 -78 -49 -143 -120 -184
l-48 -27 54 -31 c141 -80 227 -261 215 -455 -12 -191 -97 -334 -298 -502 -62
-52 -293 -215 -305 -215 -1 0 -32 -17 -66 -38 -35 -21 -90 -51 -121 -67 -32
-16 -56 -30 -54 -32 5 -6 242 66 321 97 79 31 357 168 425 209 19 11 44 25 55
30 37 17 157 109 217 167 152 147 246 322 274 509 18 122 -10 292 -73 435 -9
19 -50 105 -93 190 -42 85 -83 179 -90 208 -12 54 -15 157 -6 202 16 73 81
164 143 198 10 6 15 14 10 18 -11 11 -147 14 -197 4z"/>
<path d="M1643 2934 c26 -50 130 -166 197 -221 70 -56 200 -127 265 -145 81
-21 192 -34 265 -31 116 4 285 43 383 87 18 8 57 26 88 39 30 14 71 35 90 47
l34 22 -35 -6 c-19 -3 -53 -8 -75 -11 -22 -2 -60 -7 -85 -10 -49 -6 -329 -6
-370 -1 -14 2 -45 7 -70 10 -121 14 -212 35 -333 72 -85 27 -276 115 -336 155
l-33 22 15 -29z"/>
<path d="M5326 2933 c-136 -89 -383 -180 -566 -208 -25 -4 -53 -9 -62 -10
-131 -25 -459 -21 -602 6 -27 5 -51 7 -54 4 -12 -11 291 -142 353 -152 17 -3
38 -9 47 -14 9 -5 21 -8 25 -7 4 1 28 -2 53 -7 61 -11 195 -13 245 -4 22 4 56
10 75 13 131 20 297 120 416 250 55 60 126 158 112 155 -2 0 -21 -12 -42 -26z"/>
<path d="M2980 2510 c-44 -24 -247 -103 -320 -124 -65 -18 -128 -32 -190 -41
-24 -4 -47 -8 -50 -10 -3 -2 -45 -6 -95 -9 -49 -4 -91 -9 -93 -11 -8 -8 83
-65 137 -86 79 -31 203 -30 286 1 109 41 257 158 345 273 25 32 25 32 -20 7z"/>
<path d="M3990 2512 c14 -26 129 -143 180 -183 110 -88 218 -128 332 -124 40
2 92 10 116 18 49 17 152 78 152 89 0 4 -21 8 -47 9 -27 0 -55 2 -63 3 -8 2
-44 6 -80 10 -79 9 -301 65 -391 99 -36 14 -97 41 -137 60 -51 25 -69 31 -62
19z"/>
<path d="M3055 2350 c-22 -69 -167 -212 -306 -302 -54 -34 -98 -66 -99 -69 0
-11 91 -26 141 -24 138 7 229 119 270 332 12 64 8 107 -6 63z"/>
<path d="M3933 2320 c27 -238 138 -374 301 -366 34 2 74 9 90 15 l29 12 -73
45 c-140 86 -249 183 -312 279 l-40 60 5 -45z"/>
<path d="M3275 1742 c-129 -55 -223 -162 -251 -287 -11 -51 -12 -188 -2 -249
11 -63 15 -66 22 -16 24 189 116 386 239 518 54 56 53 60 -8 34z"/>
</g>
</svg>
